# xmcd
#
# Track frame offsets:
#	150
#	13787
#	27197
#	39650
#	52276
#	64267
#	76812
#	87987
#	102306
#	118149
#	130416
#	143641
#	157255
#	170013
#	183068
#	195237
#	207190
#	218383
#	230354
#	243540
#	256430
#	269544
#	281583
#	294186
#	306488
#	319350
#
# Disc length: 4430 seconds
#
# Revision: 0
# Processed by: cddbd v1.5.2PL0 Copyright (c) Steve Scherf et al.
# Submitted via: dBpowerAMP V4.0
#
DISCID=84114c1a
DTITLE=T-Bone Walker - Charly Blues Masterworks, Vol.24
DYEAR=2009
DGENRE=Blues
TTITLE0=Call It Stormy Monday
TTITLE1=T-Bone Shuffle
TTITLE2=West Side Baby
TTITLE3=Hypin' Woman Blues
TTITLE4=Bobby Sox Blues
TTITLE5=Inspiration Blues
TTITLE6=Strolling With Bones
TTITLE7=Cold, Cold Feeling
TTITLE8=Evening
TTITLE9=Glamour Girl
TTITLE10=I'm Still In Love With You
TTITLE11=I'm Waiting For Your Call
TTITLE12=Long Skirt Baby Blues
TTITLE13=Mean Old World
TTITLE14=Midnight Blues
TTITLE15=Tell Me What's The Reason
TTITLE16=The Hustle Is On
TTITLE17=You Don't Understand
TTITLE18=High Society
TTITLE19=Blue Mood
TTITLE20=Love Is Just A Gamble
TTITLE21=Railroad Station Blues
TTITLE22=Don't Leave Me Baby
TTITLE23=I Know Your Wig Has Gone
TTITLE24=It's A Low Down Dirty Deal
TTITLE25=I'm Gonna Find My Baby
EXTD=
EXTT0=
EXTT1=
EXTT2=
EXTT3=
EXTT4=
EXTT5=
EXTT6=
EXTT7=
EXTT8=
EXTT9=
EXTT10=
EXTT11=
EXTT12=
EXTT13=
EXTT14=
EXTT15=
EXTT16=
EXTT17=
EXTT18=
EXTT19=
EXTT20=
EXTT21=
EXTT22=
EXTT23=
EXTT24=
EXTT25=
PLAYORDER=
